<?xml version="1.0" encoding="UTF-8" standalone="no"?>
<!-- Created with Inkscape (http://www.inkscape.org/) -->

<svg
   width="210mm"
   height="297mm"
   viewBox="0 0 210 297"
   version="1.1"
   id="svg1"
   inkscape:version="1.3 (0e150ed6c4, 2023-07-21)"
   sodipodi:docname="HPicon.svg"
   inkscape:export-filename="HPicon.png"
   inkscape:export-xdpi="96"
   inkscape:export-ydpi="96"
   xmlns:inkscape="http://www.inkscape.org/namespaces/inkscape"
   xmlns:sodipodi="http://sodipodi.sourceforge.net/DTD/sodipodi-0.dtd"
   xmlns="http://www.w3.org/2000/svg"
   xmlns:svg="http://www.w3.org/2000/svg">
  <sodipodi:namedview
     id="namedview1"
     pagecolor="#ffffff"
     bordercolor="#000000"
     borderopacity="0.25"
     inkscape:showpageshadow="2"
     inkscape:pageopacity="0.0"
     inkscape:pagecheckerboard="0"
     inkscape:deskcolor="#d1d1d1"
     inkscape:document-units="mm"
     inkscape:zoom="0.82473097"
     inkscape:cx="270.99746"
     inkscape:cy="498.95059"
     inkscape:window-width="2560"
     inkscape:window-height="1377"
     inkscape:window-x="-8"
     inkscape:window-y="-8"
     inkscape:window-maximized="1"
     inkscape:current-layer="layer2" />
  <defs
     id="defs1">
    <rect
       x="305.55419"
       y="691.13447"
       width="271.60372"
       height="135.80186"
       id="rect14" />
  </defs>
  <g
     inkscape:label="Layer 1"
     inkscape:groupmode="layer"
     id="layer1"
     style="display:inline">
    <path
       style="opacity:0.97;fill:#ffffff;fill-opacity:1;stroke:#000000;stroke-width:4.83514;stroke-dasharray:none"
       d="m 103.452,243.09632 c 0,0 -74.957371,-87.59437 -84.580101,-103.58909 C 9.2491677,123.51255 2.9607117,83.547612 40.347299,71.491878 81.543915,58.207569 104.616,109.01089 104.616,109.01089 c 0,0 24.01146,-57.553338 71.58746,-38.502633 33.71991,13.502366 23.22924,54.048033 13.06301,71.147113 C 179.10025,158.75442 103.452,243.09632 103.452,243.09632 Z"
       id="path1"
       sodipodi:nodetypes="czscszc"
       inkscape:label="heart" />
  </g>
  <g
     inkscape:groupmode="layer"
     id="layer2"
     inkscape:label="Layer 2">
    <path
       style="display:inline;opacity:0.97;fill:#ffffff;fill-opacity:1;stroke:#000000;stroke-width:1.49932;stroke-dasharray:none"
       d="m 39.897862,188.16821 c 1.642637,-0.84895 3.416799,-1.35371 5.152762,-1.93838 2.210551,-0.74451 4.378771,-1.59936 6.622569,-2.23069 21.707672,-6.10777 111.658337,-13.21611 123.632547,-8.44577 0.80376,0.3202 1.56069,0.89099 2.29763,1.35379 0.22482,0.14118 0.57079,0.24285 0.76024,0.41537 0.24069,0.21917 0.46744,2.57136 0.48994,2.95373 0.0841,1.42902 -0.12763,2.82346 -0.20273,4.246 -0.29041,5.50041 -1.96559,10.49918 -3.93637,15.53788 -0.56869,1.45394 -1.18662,2.87752 -1.77391,4.32291 -0.1555,0.3827 -0.2947,0.9726 -0.5575,1.30765 -0.11089,0.14135 -0.29743,-0.18927 -0.45616,-0.26154 -0.63566,-0.28941 0.16283,0.18507 -0.65887,-0.30768 -1.41493,-0.84849 -3.08093,-1.27567 -4.61215,-1.84608 -3.90485,-1.45464 -10.39918,-1.09226 -14.59669,-1.09226 -2.31567,0 -4.64641,-0.10092 -6.96045,0.0153 -1.38602,0.0696 -72.956231,4.82031 -87.326681,10.09193 -2.052476,0.75291 -4.12977,1.4976 -6.132635,2.3999 -3.616087,1.62909 -6.945382,4.28777 -9.832488,7.09205 -0.188194,0.18279 -0.872992,1.09477 -1.047446,1.01534 -0.124488,-0.0567 2.79e-4,-0.29669 -0.05068,-0.43075 -0.103031,-0.27104 -0.934535,-0.90121 -1.131916,-1.16918 -0.76751,-1.04199 -1.293147,-2.32877 -1.75701,-3.55372 -0.750281,-1.98131 -1.072051,-3.96966 -1.537381,-6.03054 -0.212134,-0.93951 -0.488435,-1.86465 -0.658879,-2.81528 -0.239068,-1.33338 -0.279839,-2.71017 -0.354779,-4.06138 -0.09316,-1.67966 -0.249789,-3.34519 -0.202732,-5.03058 0.03674,-1.31602 0.305167,-2.66009 0.523724,-3.9537 0.470033,-2.78211 1.573083,-6.5655 4.308049,-7.58433 z"
       id="path2"
       sodipodi:nodetypes="ssssssssssssssssssscssssssssss" />
    <path
       style="opacity:0.97;fill:#ffffff;fill-opacity:1;stroke:#000000;stroke-width:1.49932;stroke-dasharray:none"
       d="m 52.906476,214.38262 c 0.764717,0.58028 1.209035,1.4523 1.689431,2.29222 0.296446,0.51829 0.670242,1.00276 0.912292,1.55379 1.293599,2.94488 2.282803,5.99143 2.205338,9.23655 -0.02078,0.86999 -1.827105,4.40664 -1.827105,4.40664 -0.680425,-1.48547 -2.164396,-2.91044 -3.959721,-4.38034 -2.693668,-2.2054 -10.785921,-4.25528 -11.030403,-4.73424 z"
       id="path3"
       sodipodi:nodetypes="cscssscc" />
    <path
       style="opacity:0.97;fill:#ffffff;fill-opacity:1;stroke:#000000;stroke-width:1.49932;stroke-dasharray:none"
       d="m 55.288581,230.88964 c -1.965323,-1.78962 -9.259068,-1.18775 -11.623285,-0.89227 -2.098925,0.26233 -3.054976,0.78572 -4.950034,1.70763 -0.568377,0.27651 -5.380402,2.35752 -3.806198,0.62427 1.574206,-1.73326 1.907473,-18.13572 1.907473,-18.13572 l 2.041788,5.67625 1.889618,2.86726 c 0,0 6.805522,2.22028 9.22837,3.66633 2.422849,1.44605 5.312268,4.48625 5.312268,4.48625 z"
       id="path4"
       sodipodi:nodetypes="czssccczc" />
    <path
       style="opacity:0.97;fill:#ffffff;fill-opacity:1;stroke:#000000;stroke-width:1.49932;stroke-dasharray:none"
       d="m 172.38559,205.64935 c -2.37918,1.95125 -4.8586,4.47498 -6.72649,6.99487 -1.5296,2.06349 -3.01304,4.28667 -3.78433,6.81512 -0.34339,1.12571 -0.36044,2.39998 -0.76025,3.49218 -0.0274,0.0749 -0.0642,-0.14553 -0.10136,-0.21538 -0.52913,-0.99377 0.25528,0.44757 -0.40546,-0.70766 -0.84179,-1.47176 -3.49927,-7.25275 -3.47497,-11.9733 0,-2.22597 0.96196,-6.27222 2.39368,-8.01056 0,0 9.36712,1.13535 12.85918,3.60473 z"
       id="path5"
       sodipodi:nodetypes="cssscssc" />
    <path
       style="opacity:0.97;fill:#ffffff;fill-opacity:1;stroke:#000000;stroke-width:1.49932;stroke-dasharray:none"
       d="m 161.12754,222.95313 c 10.74148,-8.50096 16.57719,-3.69378 16.57719,-3.69378 0,0 -0.69664,-1.42368 -1.14881,-2.04608 -4.68937,-6.45489 2.90582,-22.04532 2.90582,-22.04532 0,0 -1.65916,-0.93257 -2.49253,-1.21255 0,0 -3.42063,10.63803 -4.60714,11.81314 -1.1865,1.17511 -12.58153,11.33711 -11.23453,17.18459 z"
       id="path6"
       sodipodi:nodetypes="ccscc" />
    <text
       xml:space="preserve"
       transform="scale(0.26458333)"
       id="text14"
       style="white-space:pre;shape-inside:url(#rect14);display:inline;opacity:0.97;fill:#ffffff;fill-opacity:1;stroke:#000000;stroke-width:5;stroke-dasharray:none" />
    <text
       xml:space="preserve"
       style="font-style:normal;font-variant:normal;font-weight:normal;font-stretch:normal;font-size:37.63px;font-family:Carlito;-inkscape-font-specification:Carlito;opacity:0.97;fill:#ffffff;fill-opacity:1;stroke:#000000;stroke-width:3.52783;stroke-dasharray:none"
       x="56.989662"
       y="273.31274"
       id="text15"
       transform="scale(1.3597045,0.7354539)"><tspan
         sodipodi:role="line"
         id="tspan15"
         style="font-size:37.63px;stroke-width:3.52783"
         x="56.989662"
         y="273.31274">HP</tspan></text>
  </g>
</svg>
